<?xml version="1.0" standalone="no"?>
<!DOCTYPE svg PUBLIC "-//W3C//DTD SVG 20010904//EN"
 "http://www.w3.org/TR/2001/REC-SVG-20010904/DTD/svg10.dtd">
<svg version="1.0" xmlns="http://www.w3.org/2000/svg"
 width="138.000000pt" height="256.000000pt" viewBox="0 0 138.000000 256.000000"
 preserveAspectRatio="xMidYMid meet">
<metadata>
Created by potrace 1.15, written by Peter Selinger 2001-2017
</metadata>
<g transform="translate(0.000000,256.000000) scale(0.100000,-0.100000)"
fill="#000000" stroke="none">
<path d="M439 2554 c-1 -2 -2 -10 -3 -16 0 -7 -11 -17 -23 -23 -19 -8 -22 -16
-19 -65 1 -30 9 -67 17 -81 22 -42 89 -111 102 -105 9 3 9 5 0 5 -7 1 -13 12
-13 26 0 14 -7 28 -15 31 -8 4 -15 14 -15 24 0 11 -4 21 -8 24 -10 6 -9 36 2
54 4 7 6 19 3 25 -7 19 14 42 41 44 13 2 21 -1 18 -6 -3 -5 0 -11 7 -14 16 -6
50 -72 53 -102 1 -11 -3 -25 -8 -32 -5 -7 -7 -17 -3 -23 3 -5 -1 -13 -9 -16
-9 -3 -14 -10 -11 -14 3 -5 -5 -6 -17 -3 -17 4 -20 3 -13 -5 12 -13 66 -19 82
-9 7 4 10 14 7 21 -3 8 0 17 7 22 8 5 10 3 5 -7 -4 -8 0 -5 8 6 9 11 14 25 12
32 -3 7 0 13 6 13 16 0 3 103 -18 139 -10 17 -23 27 -31 24 -8 -3 -13 2 -13
16 0 20 -5 21 -75 20 -41 -1 -76 -3 -76 -5z"/>
<path d="M766 2543 c-4 -5 -13 -8 -19 -8 -7 0 -11 -8 -9 -18 2 -13 -2 -17 -15
-15 -16 3 -18 -5 -19 -57 -2 -68 33 -157 68 -176 18 -10 20 -9 15 5 -4 9 -2
16 3 16 6 0 10 -7 10 -15 0 -8 9 -15 20 -15 11 0 20 5 20 10 0 5 3 9 8 9 34
-6 67 38 64 85 -2 23 0 27 8 16 7 -12 10 -8 10 15 0 46 -19 105 -35 105 -8 0
-17 5 -21 12 -5 7 -3 8 6 3 9 -5 11 -4 6 4 -13 21 -58 34 -68 19 -8 -10 -11
-10 -15 0 -5 13 -26 16 -37 5z"/>
<path d="M90 2491 c-19 -11 -34 -24 -33 -29 3 -11 -36 -48 -46 -44 -10 4 -10
-112 0 -124 5 -7 8 -18 7 -25 -2 -8 2 -13 9 -12 8 2 10 -4 6 -14 -4 -11 -3
-14 6 -9 16 10 43 -14 36 -32 -3 -10 0 -12 10 -8 8 3 14 1 12 -5 -1 -6 19 -23
46 -37 41 -23 49 -25 57 -12 8 12 10 12 10 1 0 -9 8 -12 24 -9 17 4 23 1 19
-9 -3 -7 2 -13 11 -13 9 0 16 5 16 11 0 5 4 8 8 5 13 -8 51 22 67 55 12 22 13
29 3 29 -9 0 -10 2 -2 8 16 9 11 135 -4 140 -7 2 -9 8 -6 13 7 13 -15 41 -27
33 -5 -3 -6 3 -2 12 4 12 3 15 -6 10 -15 -10 -51 21 -45 38 6 17 -59 46 -104
46 -21 0 -53 -9 -72 -19z m70 -88 c0 4 6 3 13 -2 55 -46 75 -60 79 -56 3 3 5
-1 6 -7 2 -27 30 -90 43 -99 12 -7 12 -9 0 -9 -11 0 -11 -3 -1 -15 9 -11 9
-15 1 -15 -6 0 -17 -11 -23 -25 -12 -26 -47 -43 -57 -27 -10 15 -68 42 -76 34
-3 -4 -6 -2 -5 3 5 21 -1 33 -25 59 -13 14 -20 26 -15 26 4 0 6 9 3 20 -3 11
-10 20 -16 20 -7 0 -7 4 1 12 7 7 12 22 12 33 0 30 40 72 51 53 5 -7 9 -9 9
-5z"/>
<path d="M1005 2446 c-23 -23 -26 -33 -23 -88 2 -48 7 -63 18 -63 8 0 20 14
25 30 6 17 17 42 26 58 13 24 17 26 33 14 20 -14 40 -97 24 -97 -6 0 -7 -8 -4
-17 4 -10 4 -14 0 -11 -3 4 -13 0 -21 -8 -19 -18 -35 -14 -48 13 -9 17 -14 19
-27 9 -14 -10 -14 -15 -2 -39 16 -30 14 -29 64 -33 65 -5 120 59 120 141 0 19
-5 35 -11 35 -5 0 -7 5 -4 11 10 16 -34 59 -53 52 -10 -4 -13 -2 -8 5 4 7 1
12 -8 12 -9 0 -16 -6 -16 -12 0 -8 -3 -9 -8 -3 -15 21 -52 16 -77 -9z"/>
<path d="M1245 2310 c3 -5 0 -7 -9 -4 -16 6 -40 -28 -28 -40 3 -4 0 -11 -7
-15 -10 -7 -12 -21 -7 -56 8 -53 35 -85 70 -85 30 0 89 48 82 66 -3 8 -1 14 4
14 14 0 12 27 -2 33 -10 4 -10 8 1 16 22 14 -1 63 -25 54 -11 -4 -15 -2 -11 4
10 16 -25 26 -35 11 -8 -10 -11 -10 -15 0 -2 6 -9 12 -14 12 -6 0 -7 -4 -4
-10z"/>
<path d="M610 2110 c-8 -5 -23 -7 -34 -4 -10 4 -16 2 -13 -2 3 -5 -12 -10 -34
-11 -57 -2 -69 -5 -69 -16 0 -6 -3 -8 -6 -4 -3 3 -19 1 -36 -5 -23 -8 -27 -13
-16 -20 9 -6 6 -7 -10 -3 -15 4 -24 1 -28 -9 -3 -9 -9 -14 -13 -11 -13 7 -52
-26 -45 -37 4 -7 2 -8 -5 -4 -16 10 -41 -12 -41 -35 0 -12 -7 -19 -18 -19 -24
0 -42 -19 -35 -37 3 -8 0 -13 -8 -11 -8 2 -13 -4 -13 -14 1 -10 -2 -15 -7 -13
-11 8 -32 -34 -25 -51 3 -8 2 -12 -3 -9 -12 7 -24 -31 -15 -46 4 -8 3 -9 -4
-5 -7 4 -12 2 -12 -3 0 -6 6 -11 13 -11 8 0 9 -3 1 -8 -6 -4 -10 -15 -8 -25 1
-9 -2 -15 -7 -11 -5 3 -9 -18 -9 -46 0 -28 4 -49 8 -46 4 3 7 -10 6 -27 -3
-38 34 -129 48 -120 6 3 8 0 6 -8 -7 -19 31 -71 45 -63 7 4 9 3 4 -1 -9 -11
42 -65 62 -65 8 0 11 -3 8 -6 -7 -8 30 -43 47 -45 6 -1 16 -2 22 -3 6 0 18 -9
27 -18 10 -9 24 -15 32 -12 8 3 22 -2 31 -11 10 -10 27 -15 41 -12 13 2 26 0
29 -4 7 -12 44 -11 44 1 0 14 64 12 78 -2 9 -9 15 -10 20 -2 4 6 21 10 37 8
44 -2 136 35 142 57 3 10 9 17 13 14 4 -2 24 14 44 37 39 43 72 98 59 98 -5 0
-2 4 6 9 8 5 15 25 15 44 1 19 4 33 9 30 12 -7 8 12 -5 25 -9 9 -9 12 0 12 7
0 11 16 10 45 -1 25 -6 45 -11 45 -4 0 -5 4 -2 10 9 15 -24 72 -38 64 -7 -4
-9 -3 -4 1 9 10 -21 45 -39 45 -7 0 -19 9 -27 20 -16 24 -83 53 -99 44 -7 -5
-8 -3 -3 5 5 9 -1 11 -24 8 -17 -3 -29 -1 -25 4 3 5 -2 9 -10 9 -8 0 -18 -4
-21 -10 -3 -5 -17 -10 -31 -10 -13 0 -24 5 -24 10 0 6 -9 10 -20 10 -11 0 -20
-4 -20 -9 0 -5 -10 -7 -22 -3 -14 3 -19 1 -14 -6 5 -8 -1 -11 -16 -10 -28 2
-80 -30 -71 -45 4 -6 0 -8 -8 -5 -8 3 -20 -1 -27 -8 -8 -9 -9 -14 -2 -14 6 0
8 -5 5 -10 -4 -6 -10 -8 -15 -5 -5 3 -14 -4 -20 -15 -6 -11 -7 -20 -3 -20 4 0
2 -4 -6 -9 -7 -5 -16 -30 -19 -56 -3 -31 -1 -46 5 -42 6 4 8 -4 5 -20 -3 -18
-1 -24 6 -19 8 4 10 2 6 -8 -3 -8 4 -24 15 -35 12 -12 22 -24 24 -28 1 -5 8
-7 14 -7 7 1 11 -2 8 -6 -3 -4 2 -13 10 -20 12 -10 15 -10 15 1 0 11 2 11 10
-1 5 -8 17 -16 27 -16 10 -1 27 -5 38 -9 16 -6 17 -5 5 5 -12 8 -4 10 36 6 55
-4 69 0 69 24 0 8 8 14 18 13 12 0 16 4 13 13 -3 8 -1 14 4 14 6 0 10 16 10
35 0 21 -5 35 -12 35 -9 0 -8 4 2 10 9 6 11 13 5 18 -5 4 -10 13 -11 20 -2 29
-5 33 -16 26 -8 -5 -9 -2 -5 10 4 11 3 15 -4 11 -6 -4 -9 -1 -7 6 1 8 -1 15
-6 16 -5 1 -12 7 -17 14 -4 8 -10 11 -13 8 -8 -7 16 -69 27 -69 4 0 5 -4 2
-10 -3 -5 -1 -10 6 -10 8 0 8 -4 -1 -15 -9 -11 -10 -15 -1 -15 8 0 7 -6 -3
-16 -16 -15 -20 -28 -17 -51 1 -6 -3 -14 -9 -18 -5 -3 -10 -1 -10 5 0 7 -7 7
-22 -2 -33 -18 -49 -18 -65 -3 -7 8 -20 12 -28 9 -7 -3 -19 4 -25 16 -8 15 -8
20 -1 16 7 -5 9 -1 5 8 -3 9 -9 16 -13 16 -3 0 -6 22 -6 49 0 27 3 47 7 44 7
-4 12 12 9 30 0 4 3 7 9 7 5 0 7 7 4 15 -4 10 0 15 15 15 23 0 84 34 76 42 -3
3 8 4 25 2 17 -2 29 0 26 4 -2 4 13 7 34 7 21 0 36 -3 33 -7 -2 -5 4 -8 14 -8
10 0 35 -9 55 -19 19 -11 39 -17 43 -13 4 4 5 0 3 -8 -1 -8 3 -14 10 -12 6 1
12 -7 12 -18 0 -10 6 -23 13 -27 6 -4 12 -14 13 -20 3 -38 5 -44 12 -39 4 2 8
-17 8 -44 0 -27 -2 -47 -5 -45 -7 8 -31 -68 -24 -78 3 -6 1 -7 -5 -3 -11 7
-17 -6 -13 -27 1 -5 -3 -6 -7 -3 -12 7 -44 -28 -35 -38 5 -4 3 -7 -2 -6 -22 5
-35 -1 -35 -16 0 -8 -5 -12 -10 -9 -6 4 -16 2 -23 -3 -7 -5 -25 -12 -42 -16
-16 -4 -33 -13 -37 -19 -6 -9 -8 -9 -8 1 0 6 -5 12 -11 12 -5 0 -8 -4 -5 -8 2
-4 -13 -8 -35 -7 -21 0 -39 3 -39 6 0 4 -13 5 -30 4 -18 -2 -27 1 -23 8 4 6
-2 8 -15 5 -13 -4 -20 -2 -16 4 3 5 -2 9 -12 8 -33 -4 -45 0 -39 10 6 9 -8 14
-28 11 -4 0 -6 5 -5 11 2 7 -5 12 -14 12 -10 -1 -16 3 -15 9 1 6 -4 12 -10 13
-7 1 -18 2 -23 3 -6 0 -10 7 -8 15 2 8 -6 22 -17 31 -11 9 -13 14 -5 10 8 -4
4 3 -10 15 -14 12 -20 19 -14 16 5 -2 -1 19 -15 48 -14 29 -29 52 -32 50 -3
-2 -5 9 -3 24 2 15 -1 42 -6 60 -6 22 -5 30 2 26 7 -5 9 2 6 20 -3 14 -2 26 1
26 4 0 13 15 19 34 7 19 24 51 38 71 14 21 23 40 20 43 -3 3 4 10 17 17 12 6
21 17 19 24 -1 7 2 9 8 6 6 -4 19 0 29 9 23 21 142 74 182 81 19 3 37 11 41
18 6 9 8 9 8 0 0 -7 7 -13 16 -13 8 0 13 4 10 9 -4 5 3 7 14 4 13 -3 20 0 20
8 0 10 3 10 12 1 15 -15 78 -16 78 -1 0 6 7 3 17 -6 9 -10 26 -15 40 -12 13 2
26 0 29 -5 3 -5 12 -7 19 -4 8 3 15 1 17 -4 2 -4 12 -10 23 -12 11 -1 22 -6
25 -9 3 -3 29 -18 58 -34 28 -15 52 -32 52 -37 0 -5 4 -7 9 -4 5 3 11 -1 15
-9 3 -8 11 -12 19 -9 16 6 39 -18 35 -37 -2 -8 3 -13 11 -11 8 2 11 -3 8 -12
-4 -9 -1 -19 6 -23 7 -5 19 -21 27 -37 8 -16 22 -31 31 -33 10 -3 15 -12 12
-22 -2 -10 3 -25 12 -34 8 -9 16 -19 15 -22 -1 -27 2 -35 12 -29 8 5 9 0 6
-14 -4 -12 -2 -22 2 -22 4 0 6 -10 2 -22 -3 -13 -1 -19 5 -15 6 4 9 -7 6 -30
-2 -23 1 -39 9 -44 11 -7 10 -13 -1 -31 -10 -16 -10 -23 -2 -26 14 -5 15 -32
0 -32 -6 0 -8 -13 -5 -30 3 -20 1 -28 -6 -24 -7 5 -9 -2 -6 -20 3 -14 1 -29
-3 -32 -17 -10 -50 -85 -43 -96 4 -6 3 -8 -4 -4 -10 6 -28 -30 -24 -46 1 -5
-6 -8 -16 -8 -13 0 -14 -2 -4 -9 10 -6 9 -10 -7 -14 -12 -3 -25 -16 -30 -29
-6 -12 -10 -17 -10 -10 -1 7 -6 10 -11 7 -6 -4 -7 -11 -4 -17 4 -6 2 -8 -4 -4
-6 3 -15 -1 -20 -10 -5 -9 -13 -16 -18 -16 -5 -1 -25 -11 -44 -23 -19 -12 -54
-32 -78 -44 -23 -12 -40 -26 -37 -31 4 -6 -5 -10 -19 -10 -34 0 -57 -10 -49
-23 3 -6 1 -7 -5 -3 -14 8 -152 -62 -159 -81 -3 -7 -8 -11 -12 -9 -7 4 -32
-20 -31 -31 0 -5 -4 -8 -10 -8 -14 0 -60 -52 -53 -59 4 -3 0 -6 -9 -6 -17 0
-41 -47 -32 -62 4 -6 2 -8 -4 -4 -14 8 -35 -55 -26 -79 6 -14 4 -16 -7 -10
-11 7 -11 5 1 -10 9 -11 10 -16 3 -11 -8 4 -13 1 -13 -8 0 -9 5 -16 12 -16 9
0 9 -3 0 -12 -16 -16 -15 -65 1 -72 10 -5 10 -7 0 -12 -7 -3 -13 -12 -13 -20
0 -9 5 -12 13 -8 9 5 9 4 1 -5 -12 -13 -7 -64 6 -56 5 3 6 -4 3 -15 -6 -24 50
-148 71 -156 9 -3 13 -10 10 -15 -3 -5 4 -9 14 -9 23 0 46 -25 37 -40 -3 -5
-2 -10 3 -10 5 0 22 -11 38 -25 16 -14 37 -24 47 -21 9 2 15 1 12 -4 -6 -10
24 -22 36 -14 5 3 9 1 9 -5 0 -6 50 -10 125 -10 69 0 123 4 120 9 -3 4 4 6 15
3 12 -3 20 0 20 6 0 7 4 10 8 7 18 -11 147 88 136 105 -3 5 1 9 9 9 17 0 71
105 62 121 -4 6 -1 15 6 20 12 7 11 9 -1 9 -13 0 -13 1 0 10 10 7 11 13 5 18
-13 9 -14 65 -1 74 13 9 -13 99 -27 91 -6 -3 -7 -1 -3 5 8 13 -11 55 -22 48
-4 -2 -13 2 -20 10 -10 11 -10 14 -1 14 7 0 2 11 -11 25 -13 14 -30 23 -38 20
-8 -3 -16 3 -19 15 -3 11 -9 17 -14 14 -5 -3 -9 -1 -9 5 0 14 -67 33 -91 26
-15 -5 -19 -4 -15 4 5 7 -5 11 -29 11 -20 0 -34 -4 -31 -9 3 -4 -6 -6 -21 -3
-18 3 -24 1 -19 -6 4 -7 2 -10 -7 -6 -24 9 -71 -16 -110 -58 -21 -22 -36 -47
-33 -54 3 -8 1 -14 -5 -14 -5 0 -9 -6 -8 -12 3 -26 -1 -49 -9 -44 -4 2 -7 -34
-6 -82 0 -55 5 -87 12 -90 7 -2 9 -9 5 -15 -4 -6 0 -8 10 -4 19 7 42 -17 31
-34 -5 -9 -2 -10 9 -6 9 3 16 3 16 -1 -3 -19 2 -25 11 -12 8 13 10 12 10 -4 0
-13 5 -17 20 -13 12 3 18 1 14 -5 -5 -7 16 -9 60 -6 50 3 70 9 82 23 8 11 12
14 9 7 -6 -11 -3 -12 13 -3 14 7 19 17 15 28 -5 12 -2 15 10 10 21 -8 46 31
53 83 4 28 2 40 -6 40 -9 0 -10 3 -1 13 6 8 7 17 3 21 -4 4 -7 13 -7 19 0 7
-10 16 -22 22 -21 9 -25 14 -22 31 2 13 -27 24 -63 24 -48 0 -68 -8 -61 -27 4
-10 0 -14 -13 -11 -16 3 -19 -4 -20 -44 -1 -27 2 -48 6 -48 5 0 7 -8 6 -17 -2
-10 4 -24 13 -31 9 -8 10 -10 3 -7 -11 6 -12 3 -3 -14 13 -23 41 -29 41 -8 0
6 -7 21 -15 31 -8 10 -12 23 -9 27 3 5 0 9 -5 9 -17 0 -13 19 9 42 15 17 17
24 8 31 -9 6 -7 7 5 3 11 -3 20 0 24 9 5 13 7 13 20 -2 8 -10 11 -12 7 -4 -5
11 -3 11 11 3 11 -6 20 -24 22 -47 2 -21 4 -40 5 -44 4 -19 -18 -59 -43 -79
-26 -21 -134 -49 -124 -31 6 8 -25 23 -42 20 -7 -1 -10 4 -8 11 3 8 -3 23 -13
33 -9 11 -16 27 -14 36 1 9 -4 21 -12 28 -14 11 -14 15 -1 28 8 8 15 20 15 26
0 7 -4 6 -10 -3 -5 -8 -10 -12 -10 -8 0 4 11 24 25 44 14 20 22 41 18 47 -3 5
-1 7 4 4 11 -7 40 20 43 38 1 6 8 9 16 7 8 -2 17 4 20 13 4 10 13 14 22 10 8
-3 19 0 24 7 6 10 8 10 8 1 0 -8 13 -13 30 -13 33 0 101 -28 113 -48 5 -7 13
-9 19 -6 6 4 8 2 4 -4 -3 -6 0 -14 7 -19 19 -11 67 -112 67 -141 0 -13 4 -20
10 -17 5 3 10 -3 10 -15 0 -12 -4 -18 -10 -15 -7 4 -9 -3 -6 -19 3 -15 1 -24
-5 -21 -5 4 -9 -3 -9 -15 0 -11 -11 -38 -24 -59 -14 -21 -24 -40 -23 -42 1 -2
-11 -17 -27 -34 -16 -16 -26 -23 -21 -15 6 11 3 10 -12 -3 -11 -9 -25 -17 -31
-17 -7 0 -12 -5 -12 -10 0 -6 -3 -9 -7 -9 -18 4 -92 -14 -88 -21 2 -4 -16 -5
-41 -2 -25 2 -50 -1 -58 -7 -10 -9 -15 -8 -20 4 -4 11 -12 14 -27 10 -16 -5
-19 -4 -14 6 6 9 3 11 -8 6 -10 -4 -17 -2 -17 4 0 6 -7 8 -16 5 -8 -3 -12 -2
-9 4 7 12 -26 29 -44 22 -10 -3 -12 0 -8 11 6 16 -21 47 -42 47 -7 0 -10 4 -7
9 3 4 -2 17 -10 27 -9 10 -12 13 -8 5 4 -9 3 -12 -4 -7 -6 4 -8 14 -5 23 5 12
3 14 -7 8 -10 -6 -12 -4 -7 8 3 10 3 17 -1 17 -4 0 -8 12 -8 26 -1 14 -9 33
-18 43 -12 13 -14 27 -10 51 5 21 4 31 -3 27 -6 -4 -8 3 -5 18 3 16 0 25 -8
25 -10 0 -10 3 0 15 6 8 9 23 5 36 -5 14 -3 19 3 15 6 -4 11 2 12 11 2 51 6
71 11 67 6 -3 22 26 29 51 1 6 11 16 21 23 10 7 16 19 13 27 -4 10 0 15 13 15
25 0 43 19 35 38 -4 11 -1 14 11 9 10 -4 20 0 26 11 6 9 11 13 11 9 0 -4 6 -2
14 5 8 7 12 16 9 21 -2 4 -1 7 4 6 20 -3 34 2 28 11 -4 6 -3 9 2 8 16 -5 92
35 86 45 -3 6 -1 7 5 3 14 -8 123 45 115 56 -3 5 2 8 10 6 20 -4 149 81 141
93 -3 5 0 8 8 7 7 -2 12 3 10 11 -2 8 3 11 11 8 8 -3 28 9 47 28 23 23 28 34
18 38 -9 4 -8 6 4 6 19 1 81 85 70 96 -4 3 1 13 12 20 10 8 15 18 11 24 -3 6
-2 11 3 11 6 0 13 12 17 28 11 37 13 292 3 298 -5 3 -6 10 -2 15 8 13 -25 109
-37 109 -6 0 -8 4 -4 10 3 5 -3 18 -13 28 -10 10 -16 24 -14 32 3 8 0 10 -8 5
-9 -5 -11 -4 -6 4 10 15 -13 43 -27 34 -6 -3 -7 -1 -3 6 10 15 -13 43 -27 34
-5 -3 -7 -2 -4 4 7 10 -39 60 -51 56 -4 -2 -7 1 -7 6 0 6 -6 16 -14 23 -12 11
-13 10 -5 -2 4 -8 -7 0 -25 18 -19 19 -40 31 -48 28 -8 -3 -12 -2 -9 2 6 10
-64 46 -71 38 -3 -3 -12 1 -19 9 -16 15 -109 36 -139 31 -11 -2 -23 2 -27 8
-6 8 -11 6 -18 -4 -7 -12 -10 -12 -10 -1 0 9 -8 11 -27 7 -21 -5 -24 -4 -13 4
20 13 -109 14 -130 0z"/>
</g>
</svg>
