<?xml version="1.0" standalone="no"?>
<!DOCTYPE svg PUBLIC "-//W3C//DTD SVG 20010904//EN"
 "http://www.w3.org/TR/2001/REC-SVG-20010904/DTD/svg10.dtd">
<svg version="1.0" xmlns="http://www.w3.org/2000/svg"
 width="378.000000pt" height="702.000000pt" viewBox="0 0 378.000000 702.000000"
 preserveAspectRatio="xMidYMid meet">
<metadata>
Created by potrace 1.15, written by Peter Selinger 2001-2017
</metadata>
<g transform="translate(0.000000,702.000000) scale(0.100000,-0.100000)"
fill="#000000" stroke="none">
<path d="M1 6788 c0 -157 3 -225 10 -209 14 35 49 82 58 77 10 -6 88 72 82 82
-10 14 106 83 172 104 95 29 208 23 292 -15 67 -31 128 -74 121 -86 -3 -4 17
-30 44 -56 28 -27 50 -45 50 -41 0 5 9 1 20 -9 21 -19 28 -41 8 -29 -7 4 -8 3
-4 -5 4 -6 12 -9 17 -6 15 10 68 -85 94 -167 14 -43 27 -113 31 -156 8 -93 -3
-203 -17 -181 -7 9 -8 5 -3 -14 9 -40 -45 -146 -98 -192 -51 -43 -124 -71
-203 -79 -33 -3 -46 -2 -30 2 18 5 25 10 18 15 -6 4 -19 4 -29 0 -11 -4 -15
-3 -11 4 4 6 19 13 34 16 48 10 96 50 124 104 15 29 29 48 31 42 2 -5 1 34 -1
88 -2 54 -5 116 -5 137 0 22 -2 34 -4 27 -2 -7 -17 16 -32 52 -15 36 -37 79
-49 95 -23 33 -27 47 -9 36 7 -4 8 -3 4 5 -4 6 -11 9 -15 7 -4 -3 -23 11 -42
31 -44 46 -141 110 -181 118 -17 4 -26 10 -20 14 6 3 -11 6 -36 6 -26 0 -56 4
-67 9 -16 6 -17 6 -5 -3 13 -9 13 -11 -1 -11 -9 0 -28 -9 -42 -20 -15 -12 -29
-20 -32 -20 -4 1 -10 -2 -13 -6 -4 -4 -1 -4 6 0 15 9 15 1 1 -26 -6 -11 -17
-59 -25 -107 -15 -91 -17 -137 -4 -86 l8 30 1 -30 c1 -16 8 -55 16 -85 49
-183 186 -330 325 -347 40 -5 50 -10 50 -24 0 -46 -115 -31 -234 30 -39 20
-71 41 -71 48 0 6 -4 15 -9 20 -5 5 -6 3 -2 -4 10 -19 -2 -16 -35 8 -16 11
-27 24 -24 29 3 4 -3 14 -13 21 -15 13 -16 12 -3 -3 7 -10 9 -18 4 -18 -12 0
-55 45 -48 51 2 3 -13 23 -35 44 -22 22 -40 35 -40 30 0 -4 -9 0 -20 10 -21
19 -28 41 -8 29 7 -4 8 -3 4 5 -4 6 -11 9 -16 6 -5 -3 -16 5 -24 17 -19 26
-21 42 -4 32 7 -4 8 -3 4 5 -4 6 -11 9 -16 6 -12 -8 -33 33 -26 51 3 8 2 13
-3 9 -5 -3 -12 1 -14 7 -3 7 -6 -1410 -6 -3149 l-1 -3163 1158 1 c672 0 1165
4 1177 10 14 6 6 7 -25 3 -56 -7 -200 23 -179 38 10 7 7 7 -9 3 -26 -7 -114
23 -106 36 3 5 -2 6 -10 3 -20 -8 -98 34 -90 48 4 7 3 8 -4 4 -14 -9 -55 12
-47 24 3 5 0 12 -6 16 -8 5 -9 3 -4 -6 5 -8 3 -11 -6 -8 -8 3 -14 10 -14 15 0
6 -4 15 -9 20 -5 5 -6 3 -2 -5 9 -16 -10 -16 -21 1 -4 6 -8 15 -8 19 0 3 -4
10 -9 15 -5 5 -6 3 -2 -4 12 -22 -10 -14 -34 12 -13 14 -20 25 -15 25 5 0 -11
20 -35 45 -24 24 -46 42 -49 40 -6 -6 -41 25 -41 37 0 5 5 6 12 2 7 -4 8 -3 4
5 -4 6 -11 9 -16 6 -14 -9 -75 81 -130 190 -62 125 -104 249 -95 284 4 17 3
21 -3 13 -16 -24 -37 116 -36 243 1 100 -1 109 -7 55 -4 -41 -6 -1 -4 105 3
121 9 196 23 260 23 105 60 208 72 200 4 -3 6 3 4 12 -6 24 54 126 68 117 7
-4 8 -3 4 5 -9 14 21 64 34 56 5 -3 12 0 16 6 4 8 3 9 -4 5 -7 -4 -12 -3 -12
2 0 12 35 43 42 37 3 -3 13 5 24 17 l19 23 -22 -19 c-48 -40 -20 2 40 62 59
58 96 83 66 45 -11 -15 -9 -14 9 1 12 11 20 21 17 24 -6 7 25 42 37 42 5 0 6
-5 2 -12 -5 -7 -3 -8 5 -4 7 5 10 11 7 14 -7 7 13 32 26 32 5 0 6 -5 2 -12 -4
-7 -3 -8 5 -4 6 4 9 11 6 16 -3 5 22 27 55 50 70 48 97 60 85 39 -5 -8 -5 -11
1 -6 5 5 9 14 9 20 0 16 276 158 298 153 9 -2 15 -1 12 4 -6 10 135 71 148 63
6 -4 7 -1 2 7 -6 10 -4 12 9 7 11 -5 15 -3 10 5 -5 8 -2 9 10 5 9 -4 14 -3 11
2 -7 13 182 114 196 105 8 -4 9 -3 5 4 -8 14 30 36 46 26 7 -4 8 -3 4 4 -8 14
30 36 46 26 6 -4 8 -3 4 4 -8 13 60 56 75 46 7 -4 9 -3 5 4 -4 6 13 24 38 41
47 33 62 38 50 19 -4 -7 -3 -8 5 -4 6 4 9 11 6 16 -3 4 11 20 29 34 40 30 54
34 35 9 -13 -16 -12 -17 4 -4 9 8 15 16 12 19 -7 7 35 52 48 52 5 0 3 -8 -4
-17 -13 -16 -12 -17 3 -4 10 7 16 16 13 20 -5 10 99 113 107 106 3 -3 11 3 19
12 13 16 12 17 -3 4 -10 -7 -18 -9 -18 -4 0 12 31 42 43 41 5 0 12 4 15 8 4 4
1 4 -5 0 -19 -11 -16 -3 23 63 20 34 40 58 45 55 5 -3 6 3 2 12 -5 13 -3 15 7
9 8 -5 11 -4 6 3 -4 6 11 46 32 89 22 43 50 106 63 140 15 40 26 58 32 50 5
-7 6 -3 2 10 -8 29 5 80 16 61 5 -8 6 3 4 27 -4 32 -3 36 5 20 9 -18 10 -17 5
5 -2 14 -2 61 2 105 6 66 8 74 14 45 5 -30 6 -27 7 20 0 42 -2 50 -9 35 -8
-17 -9 -17 -4 6 2 14 6 74 9 135 3 78 2 94 -4 54 -6 -42 -7 -29 -6 59 2 70 -1
107 -6 95 -5 -13 -7 -4 -4 25 3 25 1 39 -3 32 -11 -17 -24 52 -16 82 4 14 3
18 -3 9 -10 -15 -46 103 -36 120 4 6 3 8 -3 5 -13 -8 -47 78 -37 94 4 7 3 9
-3 6 -12 -8 -76 121 -67 135 5 7 2 8 -6 3 -10 -6 -12 -4 -7 9 4 10 3 15 -3 11
-12 -7 -33 32 -24 47 4 6 3 8 -4 4 -5 -3 -20 9 -31 28 -24 37 -27 51 -9 40 7
-4 8 -3 4 5 -4 6 -11 9 -16 6 -5 -3 -18 8 -29 24 -23 32 -27 46 -9 35 7 -5 8
-3 4 5 -5 7 -11 10 -14 7 -7 -7 -32 13 -32 26 0 5 5 6 12 2 7 -5 8 -3 4 5 -5
7 -11 10 -14 7 -7 -7 -42 24 -42 37 0 5 8 3 18 -4 15 -13 16 -12 3 4 -8 9 -16
15 -19 12 -7 -7 -62 45 -62 58 0 6 9 2 20 -8 11 -10 20 -16 20 -14 0 3 -35 38
-77 79 -43 41 -69 65 -59 53 11 -13 15 -23 9 -23 -13 0 -65 55 -58 62 3 3 -3
11 -12 19 -16 13 -17 12 -4 -3 7 -10 9 -18 4 -18 -12 0 -42 31 -41 43 0 5 -4
12 -8 15 -4 4 -4 1 0 -5 4 -7 3 -13 -3 -13 -10 0 -26 19 -26 32 0 3 -4 10 -9
15 -5 5 -6 2 -1 -6 5 -9 3 -12 -6 -9 -8 3 -14 10 -14 15 0 6 -4 15 -9 20 -5 5
-6 2 -1 -6 5 -9 3 -12 -6 -9 -8 3 -13 11 -11 17 1 7 -2 10 -7 7 -13 -9 -213
99 -204 109 5 4 2 5 -5 1 -17 -10 -54 3 -46 16 4 7 2 8 -4 4 -16 -9 -165 36
-149 46 6 4 -4 5 -23 2 -28 -5 -32 -3 -20 6 13 10 12 11 -4 6 -11 -4 -62 -1
-114 6 -52 7 -85 15 -73 18 12 3 -54 5 -146 5 -93 0 -150 -3 -128 -7 25 -4 8
-6 -45 -3 -47 1 -76 0 -66 -4 26 -10 -152 -35 -179 -26 -17 6 -18 5 -5 -5 12
-9 8 -11 -20 -6 -21 4 -30 3 -22 -3 10 -6 4 -10 -21 -15 -19 -3 -41 -5 -48 -3
-8 2 -10 2 -5 -1 5 -3 -31 -19 -80 -37 -49 -17 -122 -48 -162 -69 -40 -20 -77
-34 -83 -31 -5 4 -8 1 -7 -6 2 -6 -3 -14 -11 -17 -9 -3 -11 0 -6 9 5 8 4 11
-1 6 -5 -5 -9 -14 -9 -20 0 -5 -6 -12 -14 -15 -9 -3 -11 0 -6 8 5 9 4 11 -4 6
-6 -4 -9 -11 -6 -15 2 -5 -13 -22 -35 -40 -43 -34 -60 -40 -39 -13 13 15 12
16 -3 3 -10 -7 -16 -16 -13 -20 5 -10 -89 -103 -97 -96 -3 3 -11 -2 -19 -12
-9 -11 -10 -14 -1 -9 6 4 12 3 12 -2 0 -11 -39 -48 -49 -45 -3 1 -8 -1 -11 -4
-3 -4 1 -3 8 1 18 10 15 -2 -9 -35 -11 -16 -24 -27 -29 -24 -5 3 -12 0 -16 -6
-4 -8 -3 -9 4 -5 18 11 15 0 -19 -59 -18 -31 -35 -52 -41 -48 -7 3 -8 1 -4 -6
10 -15 -34 -122 -47 -114 -6 3 -7 1 -3 -6 4 -6 4 -25 1 -43 -5 -23 -9 -27 -16
-17 -6 9 -7 1 -3 -21 3 -20 2 -30 -3 -23 -5 6 -8 -60 -8 -152 0 -90 3 -159 6
-153 7 12 21 -52 16 -73 -2 -8 -2 -10 1 -5 2 5 17 -23 32 -62 15 -38 44 -100
64 -136 20 -36 34 -71 31 -76 -4 -6 -1 -9 6 -8 6 2 14 -3 17 -11 3 -9 0 -11
-9 -6 -8 5 -11 4 -6 -1 5 -5 12 -9 15 -9 13 0 32 -16 32 -26 0 -6 -6 -7 -12
-3 -8 4 -10 3 -5 -2 5 -5 12 -9 15 -9 13 0 32 -16 32 -26 0 -6 -5 -7 -12 -3
-7 5 -8 3 -4 -5 5 -7 11 -10 14 -6 7 7 72 -55 72 -69 0 -5 -10 -1 -23 10 -12
10 3 -7 33 -39 30 -31 56 -57 59 -57 2 0 -4 9 -14 20 -10 11 -14 20 -8 20 13
0 65 -55 58 -62 -3 -3 3 -11 12 -19 16 -13 17 -12 4 4 -19 25 -5 21 35 -9 18
-14 32 -30 29 -34 -3 -5 0 -12 6 -16 8 -5 9 -3 4 6 -5 8 -3 11 6 8 8 -3 13
-11 11 -17 -1 -7 2 -10 8 -6 13 8 52 -14 45 -25 -4 -6 1 -7 11 -3 12 4 15 3
10 -5 -5 -8 -1 -10 10 -5 12 4 15 3 10 -5 -5 -8 -1 -10 10 -5 13 5 15 3 9 -7
-5 -9 -4 -11 4 -6 16 10 73 -13 64 -27 -3 -6 -1 -7 5 -3 17 10 96 -15 80 -26
-7 -4 2 -5 22 -2 26 4 31 3 20 -5 -11 -8 -5 -9 25 -6 30 4 35 3 20 -4 -14 -7
-4 -8 35 -5 30 2 47 1 38 -3 -9 -5 37 -8 103 -8 66 0 110 3 97 7 -13 5 0 6 32
4 36 -3 48 -1 35 4 -19 8 -19 9 2 9 12 1 58 12 103 26 44 15 85 23 92 19 6 -4
8 -3 5 3 -7 11 80 56 94 47 5 -3 8 -1 7 4 -3 9 74 72 88 72 4 0 0 -8 -7 -17
-13 -16 -12 -17 4 -4 9 8 15 16 12 19 -3 3 19 30 48 61 30 31 66 75 81 98 16
24 33 40 39 36 5 -3 7 -2 4 4 -4 5 7 41 23 79 15 38 32 87 36 109 6 32 9 36
15 20 4 -11 5 7 3 40 -2 40 -1 50 4 30 5 -20 7 2 7 62 0 51 -3 85 -8 75 -4
-10 -6 2 -3 28 2 25 2 39 -1 32 -3 -8 -16 19 -29 58 -14 39 -22 76 -18 81 3 5
1 8 -4 7 -8 -3 -82 96 -82 109 0 3 8 -1 18 -8 14 -11 14 -10 -2 8 -10 13 -22
21 -26 18 -9 -5 -52 40 -45 47 3 3 -3 11 -12 19 -16 13 -17 12 -4 -3 7 -10 9
-18 4 -18 -12 0 -42 31 -41 43 0 5 -4 12 -8 15 -4 4 -4 1 0 -5 10 -18 8 -17
-69 22 -38 19 -93 40 -123 46 -29 7 -49 15 -43 18 5 3 -44 6 -109 6 -66 0
-113 -4 -107 -8 7 -5 -6 -6 -28 -3 -24 3 -35 2 -26 -3 10 -6 4 -11 -20 -16
-54 -12 -150 -59 -202 -98 -52 -40 -67 -47 -46 -19 7 9 -6 -1 -29 -23 -40 -38
-58 -61 -27 -35 8 7 15 8 15 3 0 -12 -40 -50 -47 -45 -3 2 -8 0 -11 -4 -4 -4
-1 -4 7 1 9 5 12 3 9 -6 -3 -8 -11 -13 -17 -11 -7 1 -10 -2 -7 -7 7 -11 -14
-62 -23 -57 -8 6 -11 -23 -15 -146 -1 -59 0 -105 4 -103 4 2 14 -12 23 -31 20
-42 21 -47 5 -38 -8 4 -10 3 -5 -2 5 -5 12 -9 15 -9 13 0 32 -16 32 -26 0 -6
-6 -7 -12 -3 -7 4 5 -12 27 -35 38 -40 60 -56 35 -26 -7 8 -10 15 -7 15 11 0
106 -68 101 -73 -3 -2 8 -2 23 0 16 3 23 1 16 -4 -6 -5 9 -8 37 -8 26 0 43 3
37 7 -8 5 -4 8 8 8 11 0 40 11 64 25 49 28 55 30 45 13 -5 -10 -3 -10 7 0 8 7
14 18 14 25 0 7 5 12 12 12 7 0 18 7 25 15 11 12 11 12 -4 1 -10 -7 -18 -10
-18 -7 0 13 32 56 39 52 3 -2 7 6 7 17 1 12 9 60 18 107 17 92 19 120 5 80 -7
-19 -8 -15 -5 19 3 25 1 39 -3 33 -5 -8 -12 3 -20 30 -7 24 -24 64 -37 90 -30
59 -30 68 1 68 14 0 25 -5 25 -11 0 -5 -5 -7 -12 -3 -7 4 -8 3 -4 -5 4 -6 11
-9 16 -6 13 8 43 -42 34 -56 -5 -8 -3 -9 6 -4 10 6 12 4 7 -9 -4 -10 -3 -15 3
-11 12 8 33 -33 26 -51 -3 -8 -2 -12 3 -9 12 7 24 -31 15 -46 -4 -7 -3 -9 4
-5 14 8 25 -28 17 -56 -5 -17 -4 -19 3 -9 16 23 34 -90 30 -188 -3 -88 -30
-168 -54 -164 -14 3 -43 -28 -41 -42 1 -5 -20 -21 -48 -35 -45 -22 -61 -25
-155 -23 -69 1 -97 -2 -80 -7 42 -15 -89 0 -148 16 -29 8 -50 19 -47 24 3 6
-1 7 -10 4 -18 -7 -99 42 -90 55 2 5 -3 15 -13 22 -15 13 -16 12 -3 -3 24 -31
-4 -19 -37 15 -34 35 -44 59 -14 36 15 -13 16 -12 3 3 -7 10 -17 15 -22 13
-13 -9 -58 67 -86 142 -34 91 -43 235 -19 317 9 31 20 55 25 52 4 -3 7 5 7 17
-1 13 4 21 12 19 8 -1 10 2 7 8 -8 13 42 93 54 86 5 -3 17 4 27 17 16 18 16
19 1 8 -32 -25 -17 5 21 42 41 40 67 51 36 15 l-19 -23 22 19 c13 10 20 22 17
27 -6 11 66 63 136 99 119 60 179 72 380 75 102 1 176 -1 165 -6 -12 -4 1 -6
30 -3 39 4 47 3 35 -6 -12 -9 -11 -10 8 -5 32 9 89 -4 71 -17 -10 -7 -8 -7 9
-3 26 7 65 -3 57 -15 -3 -4 3 -6 13 -3 22 5 187 -77 187 -94 0 -6 4 -15 9 -20
5 -5 6 -2 1 6 -5 9 -3 12 6 9 8 -3 14 -10 14 -15 0 -6 4 -15 9 -20 5 -5 6 -3
2 5 -4 6 -3 12 2 12 12 0 33 -25 27 -32 -3 -3 3 -11 12 -19 16 -13 17 -12 4 4
-30 39 8 13 62 -41 54 -55 77 -90 40 -61 -16 13 -17 12 -4 -3 7 -10 17 -16 21
-13 18 11 95 -127 86 -151 -4 -10 -2 -12 6 -8 8 5 9 -2 4 -22 -4 -18 -3 -24 2
-16 15 22 23 -20 29 -148 4 -92 1 -134 -15 -210 -23 -110 -59 -213 -73 -205
-5 4 -6 -1 -3 -9 8 -20 -34 -98 -48 -90 -7 4 -8 3 -4 -4 9 -14 -12 -55 -24
-47 -5 3 -12 0 -16 -6 -5 -8 -3 -9 6 -4 8 5 11 3 8 -6 -3 -8 -10 -14 -16 -14
-5 0 -14 -4 -19 -9 -5 -5 -2 -6 6 -1 9 5 12 3 9 -6 -3 -8 -10 -14 -16 -14 -5
0 -14 -4 -19 -9 -5 -5 -3 -6 5 -2 6 4 12 3 12 -2 0 -11 -41 -49 -45 -42 -2 3
-7 1 -12 -4 -5 -5 -3 -6 5 -2 29 17 7 -14 -51 -72 -59 -58 -97 -84 -66 -45 13
16 12 17 -3 4 -10 -7 -15 -17 -13 -22 6 -9 -59 -56 -120 -86 -69 -36 -208 -75
-240 -69 -23 5 -27 4 -15 -5 11 -8 4 -9 -30 -5 -28 3 -38 2 -25 -3 15 -6 1
-10 -50 -15 -38 -4 -83 -9 -100 -12 -25 -3 -27 -2 -10 6 14 7 -23 9 -125 6
-90 -3 -136 -1 -120 5 19 6 14 7 -18 3 -54 -7 -130 5 -111 17 9 6 3 7 -16 3
-47 -9 -302 77 -289 97 3 5 -3 6 -12 2 -12 -4 -15 -3 -10 5 5 8 1 10 -10 5
-12 -4 -15 -3 -10 5 5 8 1 10 -10 5 -12 -4 -15 -3 -10 5 4 7 2 10 -6 7 -17 -7
-141 72 -134 84 3 5 -2 15 -12 22 -15 13 -16 12 -3 -3 7 -10 9 -18 4 -18 -13
0 -45 35 -38 42 3 3 -3 11 -12 19 -16 13 -17 12 -4 -3 7 -10 9 -18 5 -18 -12
0 -184 173 -184 184 0 5 8 2 17 -5 16 -13 17 -12 4 4 -8 9 -16 15 -19 12 -7
-7 -42 25 -42 38 0 5 8 3 18 -4 15 -13 16 -12 3 3 -7 10 -17 15 -22 13 -4 -3
-24 18 -44 47 -36 54 -44 75 -23 62 7 -4 8 -3 4 5 -4 6 -11 9 -16 6 -24 -15
-135 261 -126 310 4 19 3 25 -3 16 -6 -9 -12 8 -20 51 -13 78 -14 313 -1 283
6 -13 8 -2 5 35 -4 40 -3 50 4 35 8 -15 9 -8 5 25 -4 34 -3 41 5 30 8 -11 10
-7 5 20 -4 28 -3 32 6 20 9 -12 10 -11 5 8 -8 27 32 155 46 147 5 -4 6 0 3 8
-7 19 63 160 76 152 5 -3 12 0 16 6 5 8 3 9 -6 4 -8 -5 -11 -3 -8 6 3 8 11 13
17 11 7 -1 10 2 6 8 -8 14 23 63 35 55 5 -3 12 0 16 6 4 8 3 9 -4 5 -25 -15
-10 12 34 62 25 29 49 50 53 47 5 -2 19 7 31 20 13 14 20 25 15 25 -5 0 6 16
25 35 35 36 63 49 39 18 -13 -16 -12 -17 4 -4 9 8 15 16 12 19 -6 7 25 42 37
42 5 0 6 -5 2 -12 -4 -7 -3 -8 5 -4 6 4 9 11 6 16 -3 5 8 18 24 29 32 23 46
27 35 9 -4 -7 -3 -8 5 -4 6 4 9 11 6 16 -7 12 62 53 76 44 8 -4 9 -3 5 4 -8
14 70 56 86 46 7 -5 8 -3 3 6 -6 10 -4 12 8 7 9 -3 16 -2 14 4 -3 13 131 72
149 65 8 -3 12 -2 9 3 -8 13 30 24 58 16 15 -4 18 -4 8 3 -19 14 162 55 208
48 28 -4 32 -3 16 4 -15 8 -3 9 45 6 45 -3 57 -1 40 5 -16 5 10 7 75 5 67 -2
83 -1 50 4 -31 4 17 7 125 7 108 0 156 -3 125 -7 -33 -5 -15 -6 50 -4 67 3 93
1 80 -5 -14 -7 0 -8 45 -5 46 3 59 2 45 -5 -15 -7 -6 -9 30 -5 38 3 45 2 30
-6 -16 -7 -12 -8 16 -4 60 9 407 -85 394 -107 -4 -5 1 -6 9 -3 20 8 229 -92
221 -106 -3 -5 0 -7 8 -5 17 7 170 -92 162 -104 -3 -5 0 -13 6 -17 8 -4 9 -3
5 4 -4 7 -3 12 2 12 12 0 33 -25 27 -32 -3 -3 3 -11 12 -19 16 -13 17 -12 4 4
-7 9 -9 17 -4 17 13 0 55 -45 48 -52 -3 -2 5 -13 17 -24 l23 -19 -19 23 c-11
12 -15 22 -10 22 12 0 154 -142 154 -154 0 -5 -10 -1 -23 10 l-22 19 19 -23
c11 -12 22 -20 24 -17 7 7 52 -35 52 -48 0 -5 -8 -3 -17 4 -16 13 -17 12 -4
-4 8 -9 16 -15 19 -12 7 6 32 -15 32 -27 0 -5 -5 -6 -12 -2 -7 4 -8 3 -4 -5 4
-6 11 -9 16 -6 14 8 83 -101 74 -116 -4 -7 -3 -10 4 -5 14 8 36 -30 26 -46 -5
-7 -3 -8 6 -3 10 6 12 4 7 -9 -4 -10 -3 -15 3 -11 12 8 63 -93 56 -112 -3 -8
-2 -12 3 -8 22 13 117 -287 107 -333 -5 -18 -4 -22 3 -13 12 18 25 -57 17
-101 -5 -27 -4 -29 4 -13 8 15 9 5 6 -40 -2 -33 -1 -49 2 -36 4 13 7 -74 7
-193 0 -120 -3 -207 -7 -194 -4 13 -4 -2 -2 -32 3 -30 2 -50 -3 -43 -5 6 -8
-10 -9 -40 -2 -65 -50 -220 -66 -211 -7 5 -8 2 -4 -5 9 -14 -12 -73 -23 -66
-4 2 -7 -6 -7 -18 1 -12 -4 -21 -11 -20 -8 2 -10 -4 -6 -14 4 -11 3 -14 -5 -9
-8 5 -10 1 -5 -10 4 -12 3 -15 -5 -10 -7 4 -10 2 -7 -6 6 -16 -57 -123 -72
-123 -6 0 -15 -4 -20 -9 -5 -5 -3 -6 5 -2 23 14 12 -9 -33 -67 -25 -32 -50
-55 -54 -53 -5 3 -17 -4 -27 -17 l-19 -22 23 19 c12 11 22 15 22 10 0 -12
-172 -184 -184 -184 -5 0 -2 8 5 18 11 14 9 13 -9 -2 -12 -11 -20 -22 -17 -24
7 -7 -35 -52 -48 -52 -5 0 -3 8 4 18 13 15 12 16 -3 3 -10 -7 -15 -17 -13 -22
3 -4 -19 -26 -48 -48 -54 -41 -74 -51 -61 -29 4 7 3 8 -5 4 -6 -4 -9 -11 -6
-16 11 -18 -247 -176 -266 -164 -8 5 -9 3 -4 -6 6 -10 4 -12 -8 -7 -9 3 -16 2
-14 -4 3 -14 -284 -160 -306 -155 -9 2 -14 0 -11 -5 3 -5 -3 -12 -13 -16 -10
-3 -57 -28 -105 -55 -49 -27 -93 -46 -98 -43 -6 4 -9 1 -8 -6 2 -6 -3 -14 -11
-17 -9 -3 -11 0 -6 9 5 8 4 11 -1 6 -5 -5 -9 -14 -9 -19 0 -6 -6 -13 -14 -16
-9 -3 -11 0 -6 9 5 8 4 11 -1 6 -5 -5 -9 -14 -9 -19 0 -6 -6 -13 -14 -16 -9
-3 -11 0 -6 8 6 9 4 11 -4 6 -7 -5 -10 -11 -7 -14 7 -7 -13 -32 -26 -32 -5 0
-6 5 -2 12 5 7 3 8 -5 4 -7 -5 -10 -11 -7 -14 7 -7 -13 -32 -26 -32 -5 0 -6 5
-2 12 5 7 3 8 -5 4 -7 -5 -10 -11 -7 -14 7 -7 -23 -42 -36 -42 -5 0 -6 5 -2
12 5 7 3 8 -5 4 -7 -5 -10 -11 -7 -14 7 -7 -44 -62 -57 -62 -5 0 -3 8 4 18 7
9 1 6 -13 -7 -15 -13 -25 -27 -23 -31 5 -8 -99 -112 -106 -105 -3 3 -16 -7
-30 -22 -13 -15 -16 -21 -7 -14 10 7 18 9 18 4 0 -12 -56 -66 -63 -61 -3 1 -9
-1 -14 -6 -5 -5 -3 -6 5 -2 6 4 12 3 12 -2 0 -11 -32 -41 -42 -39 -3 1 -10 -2
-15 -7 -5 -5 -3 -6 4 -2 20 11 16 1 -27 -65 -21 -33 -42 -70 -45 -80 -4 -11
-11 -16 -17 -13 -6 4 -8 2 -4 -4 3 -6 -4 -48 -17 -93 -14 -45 -27 -76 -30 -68
-2 8 -3 -6 -1 -31 3 -26 1 -38 -3 -28 -5 10 -8 -61 -8 -157 0 -96 3 -166 8
-157 4 9 5 -8 3 -38 -3 -39 -2 -49 5 -35 7 15 8 10 4 -20 -3 -30 -2 -36 6 -25
8 11 9 6 5 -20 -5 -27 -3 -31 5 -20 8 11 9 7 5 -20 -3 -19 -2 -29 2 -23 10 16
66 -152 56 -169 -4 -6 -3 -8 3 -5 14 9 37 -48 27 -64 -5 -8 -3 -9 6 -4 10 6
12 4 7 -9 -4 -10 -3 -15 3 -11 5 3 14 -3 19 -14 14 -26 14 -34 -1 -25 -8 4
-10 3 -5 -2 5 -5 14 -9 19 -9 6 0 13 -6 16 -14 3 -9 0 -11 -8 -6 -9 5 -11 4
-6 -4 4 -6 11 -9 15 -6 5 2 22 -13 40 -35 34 -43 40 -60 14 -39 -16 13 -17 12
-4 -4 8 -9 16 -15 19 -12 7 7 42 -25 42 -38 0 -5 -8 -3 -17 4 -16 13 -17 12
-4 -3 7 -10 17 -16 20 -13 10 5 93 -79 86 -87 -3 -3 2 -11 12 -19 11 -9 14
-10 9 -1 -12 20 0 14 61 -29 32 -22 57 -45 55 -51 -1 -5 2 -7 7 -4 14 9 61
-15 54 -27 -3 -6 -1 -7 6 -3 6 4 28 2 47 -4 28 -10 33 -15 23 -22 -11 -7 -9
-8 5 -4 27 9 142 -16 119 -26 -11 -5 -2 -6 22 -3 22 3 102 6 177 7 75 2 129 6
120 9 -23 8 69 22 94 13 13 -4 15 -3 7 3 -16 11 121 58 139 47 6 -4 8 -3 5 3
-8 12 81 56 95 47 6 -4 8 -3 5 3 -4 6 4 18 18 27 29 19 39 20 29 4 -4 -8 -3
-10 2 -5 5 5 9 12 9 15 0 13 16 32 26 32 6 0 7 -5 3 -12 -4 -7 -3 -8 5 -4 6 4
9 11 7 15 -6 9 88 104 96 96 3 -3 11 3 19 12 13 16 12 17 -3 4 -10 -7 -18 -11
-18 -7 0 14 63 91 72 88 5 -1 7 2 4 7 -9 14 46 121 57 114 6 -3 7 -1 3 5 -3 6
5 48 18 94 13 45 26 76 28 68 3 -8 3 -4 2 10 -2 14 -5 82 -6 151 -2 70 -6 123
-9 118 -3 -6 -11 10 -18 33 -16 53 -64 149 -102 205 -31 44 -36 59 -17 47 7
-5 8 -3 4 5 -5 7 -11 10 -14 6 -7 -7 -72 55 -72 69 0 5 12 -1 28 -15 15 -13 9
-5 -13 19 -21 23 -41 42 -44 42 -2 0 4 -9 14 -20 10 -11 14 -20 8 -20 -11 0
-66 55 -63 65 1 4 -2 10 -6 13 -4 4 -4 1 0 -5 4 -7 3 -13 -2 -13 -15 0 -33 26
-24 35 4 5 2 5 -5 1 -16 -9 -76 22 -68 34 3 6 0 8 -7 5 -7 -3 -35 3 -62 14
-27 10 -44 20 -38 22 6 2 -26 5 -71 6 -45 1 -98 5 -117 8 -21 3 -30 2 -22 -3
15 -10 -84 -36 -100 -25 -6 3 -8 2 -5 -4 3 -5 -14 -19 -39 -31 -52 -25 -58
-27 -48 -9 4 7 3 9 -2 4 -5 -5 -9 -14 -9 -19 0 -6 -6 -13 -14 -16 -9 -3 -11 0
-6 8 5 9 4 11 -4 6 -6 -4 -9 -11 -7 -15 6 -9 -94 -111 -107 -110 -5 0 -12 -3
-15 -7 -4 -4 -1 -4 7 1 7 4 12 4 9 -1 -2 -5 -20 -43 -41 -84 -20 -41 -37 -81
-37 -90 0 -13 -1 -13 -10 0 -7 10 -8 3 -5 -25 4 -31 3 -36 -5 -20 -8 17 -9 15
-5 -10 2 -16 6 -80 7 -142 2 -63 7 -106 11 -100 5 7 7 3 4 -11 -3 -12 -2 -20
3 -17 4 3 14 -10 21 -27 7 -17 28 -51 46 -75 38 -50 42 -64 10 -37 -12 10 -9
4 7 -14 30 -32 50 -45 26 -17 -7 8 -8 15 -3 15 12 0 42 -31 41 -43 0 -5 4 -12
8 -15 4 -4 4 -1 0 5 -9 17 -4 16 38 -4 19 -9 33 -19 31 -23 -2 -4 42 -6 98 -6
89 1 109 4 160 28 31 15 82 51 113 80 31 29 58 51 61 50 3 -2 8 0 11 4 4 4 1
3 -7 -1 -10 -6 -13 -4 -8 6 3 8 17 40 30 72 14 33 27 53 30 45 8 -20 -3 72
-14 120 -5 24 -6 48 -3 54 4 6 3 8 -3 5 -6 -4 -18 4 -27 18 -21 32 -20 41 2
24 9 -7 -1 6 -23 29 -38 40 -61 58 -35 27 7 -8 8 -15 2 -15 -11 0 -34 25 -28
31 2 2 -18 5 -46 7 -33 2 -59 -3 -74 -13 -31 -20 -40 -19 -23 3 7 9 1 6 -14
-7 -28 -25 -38 -43 -12 -21 8 7 15 8 15 2 0 -15 -26 -33 -35 -24 -5 4 -5 1 -1
-6 11 -18 -4 -59 -14 -41 -5 7 -7 -6 -4 -32 3 -32 2 -39 -5 -24 -7 15 -9 7 -9
-35 1 -51 1 -52 9 -20 6 28 7 24 5 -25 -2 -33 -1 -54 2 -47 4 13 52 -111 52
-135 0 -22 -28 -14 -50 14 -11 15 -18 33 -16 40 3 7 0 12 -7 10 -7 -1 -12 8
-11 20 0 12 -3 20 -7 17 -11 -6 -22 33 -13 47 4 7 3 9 -4 5 -14 -8 -25 28 -17
57 5 18 4 19 -5 7 -9 -12 -10 -5 -6 30 3 31 2 39 -4 25 -6 -14 -9 3 -9 55 -1
52 2 70 9 60 7 -11 8 -6 4 16 -5 26 0 38 27 69 50 57 98 75 202 75 88 0 165
-20 153 -39 -4 -5 -1 -13 5 -17 8 -4 9 -3 5 4 -11 18 10 14 25 -5 12 -15 12
-16 -1 -8 -8 4 -4 -4 9 -18 14 -15 27 -25 29 -22 7 6 32 -15 32 -27 0 -5 -6
-6 -12 -2 -8 4 -10 3 -5 -2 5 -5 14 -9 20 -9 7 0 23 -27 37 -60 20 -50 24 -77
25 -165 0 -97 -2 -110 -31 -170 -33 -69 -81 -133 -94 -125 -4 2 -15 -4 -25
-15 -10 -11 -14 -20 -10 -20 4 0 0 -9 -10 -20 -20 -22 -40 -27 -29 -7 4 7 3 9
-2 4 -5 -5 -9 -14 -9 -20 0 -5 -6 -12 -14 -15 -9 -3 -11 0 -6 9 5 8 4 11 -1 6
-5 -5 -9 -14 -9 -20 0 -7 -10 -12 -22 -11 -12 0 -20 -3 -17 -7 8 -14 -96 -41
-134 -35 -27 4 -31 3 -17 -4 14 -6 -6 -9 -66 -9 -103 -1 -157 7 -137 21 9 6 5
7 -10 3 -27 -8 -115 22 -107 36 4 5 -2 6 -11 2 -13 -5 -15 -3 -9 7 5 9 4 11
-3 6 -14 -9 -55 12 -47 24 3 5 0 12 -6 16 -8 4 -9 3 -5 -4 4 -7 3 -12 -2 -12
-12 0 -33 25 -27 32 3 2 -13 22 -35 43 -22 22 -40 35 -40 31 0 -5 -7 -3 -15 4
-18 15 -20 35 -3 24 7 -4 8 -3 4 5 -4 6 -12 9 -17 5 -5 -3 -21 20 -36 52 -24
53 -26 69 -28 208 -2 154 3 216 14 197 4 -5 7 7 7 27 1 45 42 155 55 147 5 -4
6 2 2 11 -4 12 -3 15 5 10 8 -4 10 -2 6 8 -7 17 62 129 75 122 5 -3 15 2 22
12 13 15 12 16 -3 3 -33 -26 -18 3 24 46 40 41 67 57 52 31 -4 -8 -3 -10 2 -5
5 5 9 14 9 20 0 17 96 68 118 63 9 -2 15 0 12 4 -8 13 61 32 87 25 16 -4 19
-3 9 3 -20 14 98 32 200 31 64 -1 77 -3 54 -10 -21 -6 -14 -7 26 -3 63 6 149
-13 236 -51 36 -16 52 -29 47 -36 -4 -8 -3 -9 4 -5 14 9 55 -12 47 -24 -3 -5
0 -12 6 -16 8 -4 9 -3 5 4 -4 7 -3 12 2 12 12 0 33 -25 27 -32 -3 -3 3 -11 12
-19 16 -13 17 -12 4 4 -33 41 10 11 72 -51 62 -63 90 -103 50 -71 -16 13 -17
12 -4 -4 8 -9 16 -15 19 -12 7 6 32 -15 32 -27 0 -5 -6 -6 -12 -2 -8 4 -10 3
-5 -2 5 -5 14 -9 20 -9 5 0 12 -6 15 -14 3 -9 0 -11 -8 -6 -9 5 -11 4 -6 -4 4
-6 11 -9 16 -6 12 8 33 -33 24 -47 -4 -7 -3 -8 4 -4 14 8 46 -50 38 -70 -3 -8
-2 -13 3 -10 10 6 32 -43 51 -114 14 -48 21 -405 8 -373 -4 10 -5 -2 -2 -27 4
-34 3 -41 -5 -30 -8 11 -10 7 -5 -20 3 -21 2 -30 -3 -23 -5 7 -9 -2 -9 -25 0
-46 -65 -198 -83 -194 -7 1 -10 -2 -6 -8 8 -13 -13 -52 -25 -45 -5 3 -12 0
-16 -6 -5 -8 -3 -9 6 -4 8 5 11 3 8 -6 -3 -8 -10 -14 -16 -14 -5 0 -14 -4 -19
-9 -5 -5 -3 -6 4 -2 7 4 13 3 13 -2 0 -12 -25 -33 -32 -27 -3 3 -11 -3 -19
-12 -13 -16 -12 -17 4 -4 41 33 11 -9 -55 -76 -67 -67 -109 -97 -77 -55 11 15
11 15 -1 4 -8 -7 -15 -18 -15 -25 0 -16 -107 -88 -123 -82 -7 2 -10 0 -7 -5 8
-12 -73 -53 -91 -46 -8 3 -13 2 -9 -3 8 -13 -91 -44 -117 -36 -16 4 -19 4 -9
-3 9 -7 -9 -14 -65 -25 -75 -14 -48 -15 488 -16 l568 -1 0 3510 0 3510 -1123
0 c-1100 -1 -1121 -1 -1087 -19 19 -11 46 -32 60 -47 l25 -29 -25 20 -25 20
19 -22 c10 -12 23 -21 29 -20 20 4 76 -94 102 -174 17 -55 25 -103 25 -153 0
-92 -9 -143 -22 -124 -6 9 -7 6 -3 -9 8 -28 -3 -66 -16 -58 -5 3 -6 -1 -3 -9
7 -18 -14 -59 -26 -51 -5 3 -12 0 -16 -6 -5 -8 -3 -9 6 -4 8 5 11 3 8 -6 -3
-8 -10 -13 -15 -12 -6 1 -23 -12 -39 -30 l-29 -32 33 29 c17 17 32 25 32 19 0
-21 -74 -73 -124 -88 -59 -18 -79 -18 -146 -4 -68 14 -67 36 3 41 28 2 61 8
71 13 15 6 17 5 11 -5 -5 -9 -4 -11 4 -6 6 4 9 11 6 15 -5 9 25 40 38 39 5 0
12 4 15 8 4 4 1 4 -5 0 -17 -10 -17 -6 11 54 13 28 26 46 28 40 2 -6 3 33 2
87 -2 97 -19 174 -50 218 -17 24 -18 39 -2 29 7 -4 8 -3 4 5 -4 6 -11 9 -15 7
-4 -3 -21 8 -37 25 -16 17 -42 37 -57 45 -15 8 -26 18 -23 22 2 4 -13 6 -35 4
-21 -2 -42 -8 -45 -13 -3 -5 -10 -9 -16 -9 -6 0 -5 7 3 18 7 9 1 6 -14 -7 -28
-25 -38 -43 -12 -21 8 7 15 8 15 2 0 -15 -26 -33 -35 -24 -5 4 -5 2 -2 -5 8
-13 -2 -45 -12 -39 -3 2 -6 -6 -7 -17 0 -12 -6 -51 -12 -87 -13 -72 -5 -151
22 -215 9 -20 13 -42 9 -49 -3 -6 -3 -8 2 -4 9 9 35 -9 35 -24 0 -6 -7 -5 -15
2 -28 24 -15 4 17 -26 26 -23 29 -24 13 -4 l-20 24 25 -16 c14 -9 24 -22 22
-28 -1 -6 2 -9 7 -6 5 3 17 3 27 -1 16 -6 15 -7 -2 -21 -16 -13 -17 -14 -1 -9
9 4 17 2 17 -3 0 -6 -7 -10 -16 -10 -61 0 -179 116 -242 238 -57 109 -75 180
-70 266 5 69 31 142 47 132 10 -7 64 49 59 61 -6 15 85 54 112 48 19 -4 21 -3
10 5 -10 6 -241 10 -662 10 l-648 0 1 -232z m2337 156 c45 -18 102 -61 102
-76 0 -6 -12 -1 -27 13 l-28 24 24 -27 c13 -15 28 -26 33 -25 30 6 78 -148 78
-251 0 -71 -18 -155 -31 -146 -5 3 -6 -2 -3 -10 9 -24 -46 -114 -98 -161 -76
-68 -179 -83 -271 -39 -57 27 -48 43 26 41 34 -1 71 2 81 7 15 7 17 6 11 -4
-5 -9 -4 -11 4 -6 6 4 9 11 6 15 -6 10 39 53 47 45 3 -3 9 0 14 7 4 8 3 10 -4
5 -16 -10 -15 -6 14 59 19 40 29 83 34 144 4 47 5 88 3 90 -1 2 -3 -2 -3 -10
-1 -8 -10 9 -20 36 -24 59 -23 58 -7 49 6 -4 9 -4 5 0 -3 4 -9 7 -13 6 -3 -1
-26 17 -50 39 -51 47 -58 48 -103 21 -67 -41 -122 -164 -122 -272 0 -69 16
-111 59 -160 37 -43 39 -58 7 -58 -49 0 -127 124 -161 255 -20 78 -20 214 0
263 32 76 103 126 205 146 41 7 150 -4 188 -20z m714 -199 c10 -4 16 -11 13
-15 -3 -5 4 -6 14 -3 14 4 34 -9 69 -44 64 -64 87 -140 80 -270 -5 -105 -34
-177 -98 -247 -39 -42 -72 -63 -54 -34 4 7 3 8 -5 4 -6 -4 -9 -11 -6 -16 10
-17 -59 -43 -115 -44 -73 -1 -150 35 -150 69 0 13 -5 27 -10 30 -18 11 -52 86
-46 101 3 8 2 12 -4 9 -16 -10 -32 67 -37 178 -4 86 -2 117 11 152 30 77 73
116 151 136 33 9 160 5 187 -6z m534 -430 c20 -8 33 -19 30 -24 -4 -5 -1 -13
5 -17 8 -4 9 -3 5 4 -16 27 15 9 38 -21 93 -122 28 -356 -120 -427 -85 -41
-204 -10 -217 57 -3 16 -13 53 -21 83 -44 152 9 329 108 360 39 12 126 4 172
-15z"/>
<path d="M2906 6601 c2 -2 -13 -22 -32 -44 -49 -54 -83 -131 -93 -213 -5 -38
-7 -71 -5 -73 2 -2 4 2 4 10 0 8 9 -4 19 -26 10 -22 25 -46 34 -54 20 -16 22
-41 5 -41 -9 0 -8 -4 2 -10 52 -34 139 15 185 103 16 31 32 52 35 47 3 -4 6
30 8 76 2 68 -1 93 -18 131 -32 73 -66 104 -111 101 -21 -2 -36 -5 -33 -7z"/>
<path d="M3505 6210 c-16 -4 -39 -11 -49 -15 -15 -7 -17 -5 -11 6 4 8 5 11 1
7 -4 -3 -6 -8 -4 -11 5 -8 -34 -47 -42 -42 -4 3 -14 -3 -21 -13 -13 -15 -12
-16 4 -3 22 18 22 10 -4 -34 -29 -49 -39 -100 -27 -138 9 -28 14 -52 17 -79 1
-4 10 -9 20 -13 26 -8 80 16 110 48 13 15 27 24 32 22 4 -3 11 0 15 6 4 8 3 9
-4 5 -16 -10 -15 -6 7 45 17 40 36 174 21 149 -4 -6 -11 0 -18 15 -15 33 -15
38 1 29 8 -5 8 -2 -2 9 -7 9 -14 17 -15 16 0 -1 -14 -5 -31 -9z"/>
</g>
</svg>
