<?xml version="1.0" standalone="no"?>
<!DOCTYPE svg PUBLIC "-//W3C//DTD SVG 20010904//EN"
 "http://www.w3.org/TR/2001/REC-SVG-20010904/DTD/svg10.dtd">
<svg version="1.0" xmlns="http://www.w3.org/2000/svg"
 width="378.000000pt" height="702.000000pt" viewBox="0 0 378.000000 702.000000"
 preserveAspectRatio="xMidYMid meet">
<metadata>
Created by potrace 1.15, written by Peter Selinger 2001-2017
</metadata>
<g transform="translate(0.000000,702.000000) scale(0.100000,-0.100000)"
fill="#000000" stroke="none">
<path d="M0 6788 l0 -233 22 44 c48 98 196 215 312 246 161 44 311 -3 448
-138 143 -141 204 -272 215 -457 15 -260 -98 -417 -321 -445 -52 -7 -58 -6
-54 10 1 9 20 23 42 30 60 21 88 46 119 107 49 95 38 236 -30 378 -66 138
-203 248 -334 270 -75 12 -116 -8 -148 -74 -63 -127 -6 -372 118 -508 59 -65
133 -107 201 -115 40 -5 50 -10 50 -24 0 -12 -10 -21 -25 -25 -60 -15 -176 27
-293 106 -136 92 -237 197 -292 306 l-30 59 0 -3162 0 -3163 1163 2 c639 0
1146 3 1127 5 -19 2 -73 13 -119 25 -327 80 -586 308 -727 639 -136 318 -150
765 -35 1054 126 315 407 556 906 777 103 46 348 178 464 251 244 153 413 304
500 449 112 188 188 374 212 524 18 113 15 446 -6 549 -83 416 -376 854 -720
1078 -251 163 -559 247 -859 233 -606 -28 -1008 -249 -1219 -671 -128 -255
-126 -488 5 -753 199 -405 608 -666 997 -639 144 11 299 58 419 128 73 43 207
178 250 251 68 116 111 294 97 408 -18 145 -100 302 -206 390 -200 167 -496
186 -726 48 -82 -49 -167 -138 -205 -216 -30 -60 -33 -75 -33 -157 0 -79 4
-96 28 -143 34 -65 96 -129 163 -168 68 -40 138 -40 213 1 155 85 189 279 85
487 -30 59 -30 68 -1 68 35 0 101 -113 147 -250 31 -91 39 -249 16 -318 -33
-98 -115 -155 -249 -172 -305 -38 -529 105 -602 385 -49 188 7 363 165 515
154 149 326 212 575 212 148 0 225 -11 340 -49 149 -48 284 -132 385 -239 115
-124 160 -232 167 -404 12 -272 -98 -539 -307 -749 -105 -106 -172 -151 -291
-192 -171 -61 -387 -86 -588 -69 -351 31 -620 156 -851 396 -329 342 -431 756
-290 1176 62 184 144 313 294 464 157 156 379 296 575 363 373 127 924 119
1346 -20 411 -135 744 -404 949 -767 122 -215 198 -475 219 -742 2 -25 4 609
5 1408 l2 1452 -1122 0 c-1102 -1 -1122 -1 -1088 -20 45 -23 122 -105 148
-156 45 -88 65 -180 60 -277 -13 -250 -158 -398 -350 -358 -75 16 -81 41 -9
41 63 0 108 30 144 98 87 161 34 383 -115 478 -50 32 -88 31 -123 -3 -82 -81
-104 -267 -47 -396 20 -46 82 -112 113 -122 23 -8 25 -45 3 -45 -89 0 -249
201 -299 374 -25 84 -17 189 18 248 31 53 81 94 146 119 45 18 34 18 -606 19
l-653 0 0 -232z m2358 146 c96 -47 149 -148 159 -305 15 -233 -136 -427 -315
-406 -58 7 -122 35 -122 55 0 11 11 12 54 7 85 -11 133 23 182 129 59 129 38
273 -51 355 -25 23 -50 41 -57 41 -28 0 -80 -42 -109 -87 -39 -62 -59 -132
-59 -205 0 -69 16 -111 59 -160 37 -43 39 -58 7 -58 -49 0 -127 124 -161 255
-20 78 -20 214 0 263 32 76 103 126 205 146 54 10 155 -5 208 -30z m725 -204
c105 -49 153 -155 145 -317 -5 -103 -33 -175 -94 -242 -57 -64 -115 -94 -183
-95 -73 -1 -151 35 -151 69 0 12 -6 28 -14 34 -17 15 -55 100 -72 166 -8 28
-14 93 -14 145 1 156 47 230 165 261 52 14 167 3 218 -21z m515 -421 c103 -50
135 -169 86 -321 -19 -59 -82 -130 -140 -158 -85 -41 -204 -10 -217 57 -3 16
-13 53 -21 83 -44 152 9 329 108 360 44 13 133 3 184 -21z"/>
<path d="M2890 6574 c-49 -45 -98 -142 -107 -212 -7 -58 14 -127 47 -157 22
-20 26 -45 8 -45 -9 0 -8 -4 2 -10 54 -35 138 14 189 110 60 113 52 232 -21
316 -39 44 -67 44 -118 -2z"/>
<path d="M3449 6187 c-40 -27 -87 -100 -99 -153 -6 -26 -4 -50 6 -78 7 -23 14
-49 14 -58 0 -40 72 -29 124 20 39 37 76 118 76 170 0 23 -9 61 -20 82 -24 47
-50 52 -101 17z"/>
<path d="M3770 3873 c0 -94 -41 -269 -93 -392 -166 -403 -505 -716 -1081
-1002 -223 -111 -276 -139 -349 -181 -116 -68 -267 -187 -387 -308 -256 -256
-328 -404 -337 -695 -6 -177 8 -278 63 -448 49 -150 85 -223 157 -319 91 -121
158 -189 244 -248 179 -125 382 -165 619 -125 377 65 613 266 710 606 24 82
26 103 21 203 -6 119 -21 176 -75 281 -43 83 -81 137 -137 196 -126 131 -247
195 -394 206 -196 14 -399 -105 -491 -288 -49 -100 -64 -170 -58 -287 5 -81
10 -102 41 -165 42 -84 101 -148 172 -185 43 -23 62 -27 140 -27 77 0 98 4
148 27 132 62 222 192 222 318 -1 79 -23 128 -83 187 -66 64 -132 70 -186 16
-65 -65 -75 -173 -30 -310 15 -46 25 -86 21 -89 -29 -29 -108 108 -137 236
-12 58 -13 145 0 192 13 45 75 103 128 118 22 7 78 11 129 9 84 -4 94 -6 142
-39 28 -19 67 -57 86 -85 55 -80 68 -127 69 -245 1 -98 -1 -109 -31 -173 -34
-71 -111 -161 -178 -207 -72 -49 -150 -72 -265 -77 -80 -4 -121 -1 -170 12
-151 39 -290 145 -349 266 -118 243 -9 668 218 848 163 128 463 167 694 90
240 -79 457 -328 533 -609 27 -99 25 -318 -4 -434 -47 -186 -135 -338 -272
-470 -145 -138 -288 -214 -481 -255 l-94 -20 568 0 567 -1 0 1955 c0 1075 -2
1955 -5 1955 -3 0 -5 -17 -5 -37z"/>
</g>
</svg>
